<?xml version="1.0" encoding="utf-8"?>
<!-- Generator: Adobe Illustrator 25.4.8, SVG Export Plug-In . SVG Version: 6.00 Build 0)  -->
<svg version="1.1" id="レイヤー_1" xmlns="http://www.w3.org/2000/svg" xmlns:xlink="http://www.w3.org/1999/xlink" x="0px"
	 y="0px" viewBox="0 0 50.5 50.5" style="enable-background:new 0 0 50.5 50.5;" xml:space="preserve">
<style type="text/css">
	.st0{fill:#FFFFFF;}
</style>
<g id="レイヤー_2_00000099660712431327557450000000984158253092715190_">
	<g id="レイヤー_1-2">
		<path class="st0" d="M13.7,33.8h10.9V37H9.2v-2.9L20,19.7H9.4v-3.2h15v2.9L13.7,33.8z M40.8,37h-4l-4.3-7.5h-1.8V37h-3.3V19.2h5.9
			c4.1,0,6.5,1.9,6.5,5.1c0,2.3-1.6,4.3-3.8,4.8L40.8,37z M33.2,22.2h-2.4v4.4H33c3.4,0,3.4-1.7,3.4-2.2
			C36.4,22.9,35.3,22.2,33.2,22.2z M25.5,4H11.2C7.2,4,4,7.2,4,11.2v35.2h42.5V25C46.5,13.4,37.1,4,25.5,4 M25.5,0
			c13.8,0,25,11.2,25,25v25.5H0V11.2C0,5,5,0,11.2,0H25.5z"/>
	</g>
</g>
</svg>
